<?xml version="1.0" encoding="utf-8"?>
<!-- Generator: Adobe Illustrator 15.1.0, SVG Export Plug-In . SVG Version: 6.00 Build 0)  -->
<!DOCTYPE svg PUBLIC "-//W3C//DTD SVG 1.1//EN" "http://www.w3.org/Graphics/SVG/1.1/DTD/svg11.dtd">
<svg version="1.1" id="Layer_1" xmlns="http://www.w3.org/2000/svg" xmlns:xlink="http://www.w3.org/1999/xlink" x="0px" y="0px"
	 width="50px" height="50px" viewBox="0 0 50 50" enable-background="new 0 0 50 50" xml:space="preserve">
<circle fill="#FFFFFF" stroke="#1EA0DB" stroke-width="2" stroke-linecap="round" stroke-linejoin="bevel" stroke-miterlimit="10" cx="24.957" cy="24.973" r="23.974"/>
<path fill="#1EA0DB" d="M35.732,40.371c0.097,0.229-0.438,1.088-1.708,1.605c-0.667,0.271-1.506,0.523-2.511,0.664
	c-2.919,0.406-4.665-0.533-4.665-0.533s-2.337,0.607-8.397-13.795c-6.059-14.401-3.913-15.466-3.913-15.466s0.289-1.655,2.875-3.704
	c0.834-0.66,1.584-1.096,2.218-1.384c1.331-0.604,2.263-0.271,2.149-0.553l3.475,8.26l-3.08,1.674c0,0-2.084,1.471,1.139,9.128
	c3.221,7.66,5.619,7.191,5.619,7.191l3.5-0.932L35.732,40.371z"/>
</svg>
