<?xml version="1.0" encoding="utf-8"?>
<!-- Generator: Adobe Illustrator 15.1.0, SVG Export Plug-In . SVG Version: 6.00 Build 0)  -->
<!DOCTYPE svg PUBLIC "-//W3C//DTD SVG 1.1//EN" "http://www.w3.org/Graphics/SVG/1.1/DTD/svg11.dtd">
<svg version="1.1" id="Layer_1" xmlns="http://www.w3.org/2000/svg" xmlns:xlink="http://www.w3.org/1999/xlink" x="0px" y="0px"
	 width="71.652px" height="62.962px" viewBox="124.953 46.875 71.652 62.962" enable-background="new 124.953 46.875 71.652 62.962"
	 xml:space="preserve">
<path fill="#016A99" d="M124.958,46.875v4.497h11.382l3.512,16.301l2.249,15.038l-2.671,13.774
	c-3.139,0.576-5.481,3.301-5.481,6.606c0,3.723,3.022,6.745,6.745,6.745c3.103,0,5.68-2.064,6.467-4.919H179.2
	c0.787,2.855,3.359,4.919,6.466,4.919c3.724,0,6.746-3.022,6.746-6.745c0-3.724-3.022-6.746-6.746-6.746
	c-2.792,0-5.158,1.655-6.183,4.074H146.88c-0.598-1.412-1.614-2.505-2.95-3.233l1.97-9.839h44.268c1.349,0,2.249-0.899,2.249-2.249
	l4.074-26.982c0.45-1.349-0.477-2.248-1.826-2.248h-52.561l-1.408-6.323h-0.139c-0.122-0.553-0.328-0.994-0.562-1.264
	c-0.311-0.36-0.553-0.67-0.846-0.846c-0.584-0.351-1.133-0.562-2.109-0.562h-12.088H124.958z"/>
</svg>
