<?xml version="1.0" encoding="utf-8"?>
<!-- Generator: Adobe Illustrator 15.1.0, SVG Export Plug-In . SVG Version: 6.00 Build 0)  -->
<!DOCTYPE svg PUBLIC "-//W3C//DTD SVG 1.1//EN" "http://www.w3.org/Graphics/SVG/1.1/DTD/svg11.dtd">
<svg version="1.1" id="Layer_1" xmlns="http://www.w3.org/2000/svg" xmlns:xlink="http://www.w3.org/1999/xlink" x="0px" y="0px"
	 width="314.365px" height="72.548px" viewBox="0 0 314.365 72.548" enable-background="new 0 0 314.365 72.548"
	 xml:space="preserve">
<g>
	<g>
		<path fill="#00A2E5" d="M11.985,0h33.174c6.695,0,13.017,3.289,13.017,17.602c0,7.804-1.594,15.608-4.664,27.147
			c-3.319,12.75-11.181,17.167-17.446,17.167H0L11.985,0z M22.056,45.441h7.006c4.301,0,6.877-4.679,7.803-10.056
			c0.917-5.21,1.226-7.548,1.226-9.025c0-4.164-1.289-5.898-5.032-5.898h-6.147L22.056,45.441z"/>
	</g>
	<g>
		<path fill="#00A2E5" d="M61.021,25.134c2.665-5.707,6.348-8.744,18.125-8.744c6.502,0,18.738,0.22,18.738,13.225
			c0,7.085-1.28,13.663-3.378,20.021C90.61,61.203,83.958,63.144,75.354,63.144c-8.339,0-19.099-0.857-19.099-15.964
			C56.255,39.88,58.257,31.136,61.021,25.134z M75.204,49.421c5.324,0,6.911-7.882,6.911-12.358c0-3.759-1.179-4.917-5.171-4.917
			c-4.707,0-6.242,6.938-6.296,13.223C70.647,48.198,72.185,49.421,75.204,49.421z"/>
	</g>
	<g>
		<path fill="#00A2E5" d="M104.963,7.646h14.89l-3.889,20.525h0.101c3.123-8.17,7.168-11.782,13.67-11.782
			c5.121,0,9.677,2.529,9.677,10.123c0,2.885-0.511,5.919-1.13,8.957l-5.068,26.164h-15.459l2.617-13.22
			c0.506-2.601,1.381-7.017,1.381-8.682c0-2.814-1.381-3.681-3.023-3.681c-2.869,0-4.25,1.228-5.475,7.875l-3.275,17.708H94.819
			L104.963,7.646z"/>
	</g>
	<g>
		<path fill="#00A2E5" d="M154.52,44.218c-0.202,0.935-0.258,1.657-0.258,2.312c0,4.695,4.149,4.838,7.425,4.838
			c4.81,0,9.524-1.511,14.084-2.892l-3.998,11.496c-5.527,2.02-11.314,3.172-17.05,3.172c-7.013,0-15.769-0.929-15.769-13.723
			c0-9.541,3.022-20.242,5.89-25.079c4.557-7.659,10.084-7.952,16.739-7.952c13.722,0,18.994,3.394,18.994,15.177
			c0,2.531-1.634,9.756-2.557,12.651H154.52z M167.271,35.038c0.151-1.3,0.307-2.386,0.307-3.471c0-3.252-2.559-4.045-3.892-4.045
			c-3.583,0-5.582,1.446-7.116,7.516H167.271z"/>
	</g>
	<g>
		<path fill="#00A2E5" d="M185.756,17.911h14.845l-1.942,10.261h0.103c3.12-8.17,7.166-11.782,13.666-11.782
			c5.125,0,9.683,2.529,9.683,10.123c0,2.885-0.511,5.919-1.132,8.957l-5.068,26.164h-15.458l2.61-13.22
			c0.508-2.601,1.383-7.017,1.383-8.682c0-2.814-1.383-3.681-3.02-3.681c-2.869,0-4.251,1.228-5.475,7.875l-3.275,17.708h-15.163
			L185.756,17.911z"/>
	</g>
	<g>
		<path fill="#00A2E5" d="M221.96,61.415h7.938V61.27c-2.508-2.603-2.82-4.91-3.126-8.957l-2.763-34.403h14.391l0.301,26.668h0.107
			l8.959-26.668h16.946L244.749,62.5c-3.079,6.869-6.15,10.048-13.417,10.048h-11.469L221.96,61.415z"/>
	</g>
	<g>
		<path fill="#00A2E5" d="M268.044,10.034h12.236l-8.033,21.676h-8.714L268.044,10.034z"/>
	</g>
	<g>
		<path fill="#00A2E5" d="M274.792,49.49c4.096,1.013,8.24,1.234,12.389,1.234c1.179,0,6.143,0,6.143-2.748
			c0-1.594-0.61-2.029-1.786-2.029c-1.487,0-3.584,0.219-5.839,0.219c-6.092,0-9.577-1.302-9.577-10.555
			c0-10.045,3.79-19.222,18.333-19.222c5.069,0,13.256,0,19.91,1.591l-2.403,13.368c-2.921-1.007-9.423-1.224-11.317-1.224
			c-2.15,0-7.322,0.143-7.322,2.885c0,1.808,0.672,2.17,2.562,2.17c1.127,0,2.865-0.143,5.22-0.143c4.968,0,9.424,0.647,9.424,9.464
			c0,17.714-11.005,18.643-20.785,18.643c-5.731,0-11.367-0.644-17.057-1.37L274.792,49.49z"/>
	</g>
</g>
</svg>
